<svg xmlns="http://www.w3.org/2000/svg" viewBox="0 0 520 420" fill="none">
  <defs>
    <linearGradient id="paper" x1="140" y1="70" x2="340" y2="330" gradientUnits="userSpaceOnUse"><stop stop-color="#fffef7"/><stop offset="1" stop-color="#e9ddc6"/></linearGradient>
    <linearGradient id="seal" x1="304" y1="244" x2="378" y2="333" gradientUnits="userSpaceOnUse"><stop stop-color="#8c9e73"/><stop offset="1" stop-color="#4e6244"/></linearGradient>
    <filter id="shadow" x="-50%" y="-50%" width="200%" height="200%"><feDropShadow dx="0" dy="14" stdDeviation="14" flood-color="#72634e" flood-opacity=".15"/></filter>
  </defs>
  <ellipse cx="260" cy="363" rx="166" ry="19" fill="#b8b19a" opacity=".16"/>
  <circle cx="265" cy="199" r="157" fill="#e4e9d9"/>
  <circle cx="265" cy="199" r="179" stroke="#b1bea0" stroke-dasharray="3 12" opacity=".5"/>
  <path d="M116 92 341 55 389 310 164 348Z" fill="#c8d1b6"/>
  <g filter="url(#shadow)" transform="rotate(7 260 210)">
    <rect x="134" y="72" width="243" height="271" rx="17" fill="url(#paper)" stroke="#fffef8" stroke-width="3"/>
    <rect x="150" y="89" width="211" height="237" rx="9" stroke="#d6c7aa"/>
    <path d="m176 116 14 8-14 9zM207 115h16M207 134l8-14 8 14zM176 146v17m6-17v17m6-17v17M216 146a8 8 0 0 1 8 8c0 5-8 12-8 12s-8-7-8-12a8 8 0 0 1 8-8Z" stroke="#c98750" stroke-width="3" stroke-linejoin="round"/>
    <path d="M176 194h128" stroke="#586a49" stroke-width="9" stroke-linecap="round"/>
    <path d="M176 218h149M176 232h117M176 246h137" stroke="#c8c7b6" stroke-width="5" stroke-linecap="round"/>
    <path d="M177 289q10-28 18-7t24-2q9 8 18-4" stroke="#b5835b" stroke-width="3" stroke-linecap="round"/>
  </g>
  <path d="m310 314-12 68 31-16 23 23 12-68" fill="#ba764b"/>
  <circle cx="344" cy="294" r="57" fill="url(#seal)" stroke="#eff0de" stroke-width="7" filter="url(#shadow)"/>
  <circle cx="344" cy="294" r="43" stroke="#b8c7a4" stroke-width="1.5" stroke-dasharray="2 5"/>
  <path d="m324 294 13 13 26-29" stroke="#fffdf0" stroke-width="7" stroke-linecap="round" stroke-linejoin="round"/>
  <path d="m405 116 5 15 15 5-15 5-5 15-5-15-15-5 15-5Z" fill="#c78a51"/>
  <path d="m102 249 3 9 9 3-9 3-3 9-3-9-9-3 9-3Z" fill="#9ba987"/>
  <circle cx="420" cy="222" r="5" fill="#caa16e"/>
</svg>
